<?xml version="1.0" encoding="utf-8"?>
<!-- Generator: Adobe Illustrator 19.0.0, SVG Export Plug-In . SVG Version: 6.00 Build 0)  -->
<svg version="1.1" id="图层_1" xmlns="http://www.w3.org/2000/svg" xmlns:xlink="http://www.w3.org/1999/xlink" x="0px" y="0px"
	 viewBox="0 0 36 36" style="enable-background:new 0 0 36 36;" xml:space="preserve">
<style type="text/css">
	.st0{fill-rule:evenodd;clip-rule:evenodd;fill:#FF0E00;}
</style>
<path id="XMLID_34_" class="st0" d="M18,0C8.1,0,0,8.1,0,18c0,9.9,8.1,18,18,18s18-8.1,18-18C36,8.1,27.9,0,18,0z M16.7,11.3L12,14
	c-0.2,0.1-0.4,0.4-0.4,0.7v3.1v3.4c0,0.3,0.2,0.6,0.4,0.7l4.7,2.7v4.7l-8.3-4.8c-0.5-0.3-0.9-0.9-0.9-1.6c0,0,0-0.1,0-0.1v-1.8v-3.3
	v-3V13c0,0,0-0.1,0-0.1c0-0.7,0.4-1.2,0.9-1.6l8.3-4.8V11.3z M28.7,23c0,0.7-0.4,1.2-0.9,1.6l-8.3,4.8v-4.7l4.7-2.7
	c0.2-0.1,0.4-0.4,0.4-0.7v-3.4v-3.1c0-0.3-0.2-0.6-0.4-0.7l-4.7-2.7V6.6l8.3,4.8c0.5,0.3,0.9,0.9,0.9,1.6c0,0,0,0.1,0,0.1v1.8v3v3.3
	L28.7,23C28.7,22.9,28.7,23,28.7,23z"/>
</svg>
